<?xml version="1.0" standalone="no"?>
<!DOCTYPE svg PUBLIC "-//W3C//DTD SVG 20010904//EN"
 "http://www.w3.org/TR/2001/REC-SVG-20010904/DTD/svg10.dtd">
<svg version="1.0" xmlns="http://www.w3.org/2000/svg"
  viewBox="0 50 500 400"
 preserveAspectRatio="xMidYMid meet">
<metadata>
Created by potrace 1.15, written by Peter Selinger 2001-2017
</metadata>
<g transform="translate(0.000000,600.000000) scale(0.100000,-0.100000)"
fill="#f76497" stroke="none">
<path d="M2660 4496 c0 -140 -3 -261 -6 -270 -6 -14 -66 -16 -585 -16 l-579 0
0 -265 0 -265 -287 -2 -288 -3 -3 -267 -2 -268 -130 0 c-71 0 -131 -4 -134 -9
-4 -5 -9 -69 -12 -143 -20 -436 149 -879 438 -1153 99 -95 187 -156 316 -219
241 -120 486 -169 837 -168 277 0 499 26 745 88 477 119 841 322 1155 645 207
213 367 450 489 727 l27 62 54 0 c69 0 197 17 257 35 169 49 299 162 382 328
26 54 46 100 45 101 -28 22 -137 81 -175 95 -76 29 -223 44 -351 37 l-112 -7
-6 28 c-14 66 -58 173 -92 224 -62 94 -244 265 -300 281 -12 3 -77 -91 -119
-174 -14 -28 -37 -94 -50 -146 -44 -173 -28 -355 42 -494 14 -28 22 -54 17
-59 -24 -23 -242 -79 -310 -79 l-23 0 0 270 0 270 -290 0 -290 0 0 535 0 535
-330 0 -330 0 0 -254z m578 -58 l-3 -223 -249 -3 c-224 -2 -248 -1 -242 14 3
8 6 107 6 220 l0 204 238 3 c130 1 240 3 245 5 4 1 6 -98 5 -220z m-1160 -539
l-3 -214 -242 -3 -243 -2 0 220 0 220 238 2 c130 2 240 0 245 -3 4 -3 6 -102
5 -220z m1158 -206 c-4 -10 -60 -13 -246 -13 l-240 0 0 220 0 220 243 2 242 3
3 -210 c1 -115 0 -215 -2 -222z m-586 207 l0 -220 -245 0 -245 0 0 220 0 220
245 0 245 0 0 -220z m1850 -57 c95 -104 150 -240 150 -371 0 -37 -15 -72 -85
-204 -461 -861 -967 -1320 -1667 -1513 l-48 -13 -2 281 -3 282 -5 -360 -5
-359 -36 -8 c-148 -30 -378 -51 -579 -51 -185 0 -236 4 -365 26 -286 49 -492
139 -687 302 -38 31 -68 60 -68 64 0 4 57 7 128 8 149 0 289 22 417 65 107 36
215 88 215 102 0 6 -8 21 -18 34 l-18 23 -88 -41 c-178 -82 -408 -122 -595
-102 -58 6 -114 14 -124 18 -30 11 -167 230 -167 267 0 16 49 17 588 19 l587
3 -512 2 -511 3 -30 73 c-61 147 -105 320 -131 514 -10 73 -16 135 -13 138 3
3 714 5 1580 5 1545 0 1576 0 1674 20 104 22 236 79 271 118 18 20 17 21 -16
69 -108 152 -127 366 -50 568 14 39 37 87 50 108 l24 38 39 -31 c22 -17 67
-61 100 -97z m-3018 -463 l-3 -220 -239 0 -240 0 0 220 0 220 243 0 242 0 -3
-220z m582 214 c14 -5 16 -35 16 -226 0 -197 -2 -219 -16 -214 -9 3 -119 6
-244 6 l-229 0 -3 220 -3 220 232 0 c127 0 238 -3 247 -6z m586 -214 l0 -220
-245 0 -246 0 1 220 1 220 245 0 244 0 0 -220z m588 -9 c2 -201 1 -223 -14
-217 -8 3 -119 6 -245 6 l-229 0 0 220 0 220 243 -2 242 -3 3 -224z m568 213
c-3 -9 -6 -108 -6 -220 l0 -204 -240 0 -240 0 0 213 c0 118 3 217 7 220 3 4
114 7 246 7 214 0 239 -2 233 -16z"/>
<path d="M2830 4440 l0 -141 28 3 27 3 0 135 0 135 -27 3 -28 3 0 -141z"/>
<path d="M2960 4440 l0 -141 28 3 27 3 0 135 0 135 -27 3 -28 3 0 -141z"/>
<path d="M3090 4440 l0 -140 30 0 30 0 0 140 0 140 -30 0 -30 0 0 -140z"/>
<path d="M1662 3913 l3 -138 25 0 25 0 3 138 3 137 -31 0 -31 0 3 -137z"/>
<path d="M1794 4037 c-2 -7 -3 -69 -2 -138 l3 -124 28 -3 27 -3 0 140 0 141
-25 0 c-14 0 -28 -6 -31 -13z"/>
<path d="M1930 3910 l0 -141 28 3 27 3 0 135 0 135 -27 3 -28 3 0 -141z"/>
<path d="M2830 3910 l0 -141 28 3 27 3 0 135 0 135 -27 3 -28 3 0 -141z"/>
<path d="M2962 3913 l3 -138 25 0 25 0 3 138 3 137 -31 0 -31 0 3 -137z"/>
<path d="M3092 3913 l3 -138 25 0 25 0 3 138 3 137 -31 0 -31 0 3 -137z"/>
<path d="M2242 3913 l3 -138 25 0 25 0 3 138 3 137 -31 0 -31 0 3 -137z"/>
<path d="M2382 3913 l3 -138 25 0 25 0 3 138 3 137 -31 0 -31 0 3 -137z"/>
<path d="M2514 4037 c-2 -7 -3 -69 -2 -138 l3 -124 28 -3 27 -3 0 140 0 141
-25 0 c-14 0 -28 -6 -31 -13z"/>
<path d="M2145 2461 c-43 -18 -63 -68 -45 -110 22 -53 95 -67 135 -26 30 29
32 55 6 55 -26 0 -43 24 -39 57 2 22 -1 28 -17 30 -11 1 -29 -2 -40 -6z"/>
<path d="M1090 3370 l0 -141 28 3 27 3 0 135 0 135 -27 3 -28 3 0 -141z"/>
<path d="M1222 3373 l3 -138 25 0 25 0 3 138 3 137 -31 0 -31 0 3 -137z"/>
<path d="M1352 3373 l3 -138 25 0 25 0 3 138 3 137 -31 0 -31 0 3 -137z"/>
<path d="M1662 3373 l3 -138 25 0 25 0 3 138 3 137 -31 0 -31 0 3 -137z"/>
<path d="M1794 3497 c-2 -7 -3 -69 -2 -138 l3 -124 28 -3 27 -3 0 140 0 141
-25 0 c-14 0 -28 -6 -31 -13z"/>
<path d="M1930 3370 l0 -141 28 3 27 3 0 135 0 135 -27 3 -28 3 0 -141z"/>
<path d="M2242 3373 l3 -138 25 0 25 0 3 138 3 137 -31 0 -31 0 3 -137z"/>
<path d="M2382 3373 l3 -138 25 0 25 0 3 138 3 137 -31 0 -31 0 3 -137z"/>
<path d="M2514 3497 c-2 -7 -3 -69 -2 -138 l3 -124 28 -3 27 -3 0 140 0 141
-25 0 c-14 0 -28 -6 -31 -13z"/>
<path d="M2830 3370 l0 -141 28 3 27 3 0 135 0 135 -27 3 -28 3 0 -141z"/>
<path d="M2962 3373 l3 -138 25 0 25 0 3 138 3 137 -31 0 -31 0 3 -137z"/>
<path d="M3092 3373 l3 -138 25 0 25 0 3 138 3 137 -31 0 -31 0 3 -137z"/>
<path d="M3402 3373 l3 -138 25 0 25 0 3 138 3 137 -31 0 -31 0 3 -137z"/>
<path d="M3534 3497 c-2 -7 -3 -69 -2 -138 l3 -124 28 -3 27 -3 0 140 0 141
-25 0 c-14 0 -28 -6 -31 -13z"/>
<path d="M3670 3370 l0 -141 28 3 27 3 0 135 0 135 -27 3 -28 3 0 -141z"/>
</g>
</svg>
