<?xml version="1.0" standalone="no"?>
<!DOCTYPE svg PUBLIC "-//W3C//DTD SVG 20010904//EN"
 "http://www.w3.org/TR/2001/REC-SVG-20010904/DTD/svg10.dtd">
<svg version="1.0" xmlns="http://www.w3.org/2000/svg"
 width="600.000000pt" height="60.000000pt" viewBox="0 0 550 500"
 preserveAspectRatio="xMidYMid meet">
<metadata>
Created by potrace 1.15, written by Peter Selinger 2001-2017
</metadata>
<g transform="translate(0.000000,512.000000) scale(0.100000,-0.100000)"
fill="#f76497" stroke="none">
<path d="M259 4861 l-259 -259 0 -108 0 -108 76 74 c97 94 542 540 609 609
l49 51 -108 0 -108 0 -259 -259z"/>
<path d="M709 4411 l-709 -708 0 -109 0 -108 76 74 c102 100 1445 1443 1509
1509 l49 51 -108 0 -109 0 -708 -709z"/>
<path d="M1831 4634 c-394 -395 -503 -497 -575 -545 -101 -68 -212 -157 -274
-221 -33 -35 -44 -55 -51 -94 -7 -46 -15 -56 -151 -191 -79 -79 -148 -143
-153 -143 -5 0 -22 11 -38 24 -79 67 -240 88 -351 46 -100 -37 -181 -117 -218
-216 -19 -53 -20 -75 -20 -832 l0 -777 26 26 26 26 45 -48 c27 -29 73 -62 112
-82 60 -29 74 -32 161 -32 87 0 101 3 161 32 79 39 140 102 177 181 l27 57 3
288 3 288 619 618 618 619 74 13 c117 22 344 17 458 -10 52 -12 98 -26 103
-30 4 -4 -41 -56 -100 -116 l-108 -109 -110 3 c-128 3 -220 -10 -318 -44 -218
-77 -392 -231 -492 -439 -66 -137 -79 -196 -81 -371 l-2 -150 -701 -701 -701
-702 0 -108 0 -108 76 74 c42 41 370 368 728 726 l652 650 18 -41 c32 -78 115
-192 195 -267 l80 -75 -96 -97 c-52 -53 -97 -96 -99 -96 -2 0 -31 24 -64 54
-70 63 -103 74 -154 52 -42 -18 -71 -72 -61 -115 3 -14 33 -53 66 -86 l59 -61
-700 -701 -700 -701 0 -51 0 -51 59 0 58 0 543 541 c298 297 543 539 545 537
1 -2 8 -13 14 -25 15 -30 191 -133 308 -180 51 -21 93 -41 93 -44 0 -3 -182
-188 -405 -411 -223 -223 -405 -408 -405 -412 0 -3 47 -6 103 -6 l104 0 391
389 391 389 58 -14 c121 -28 316 -47 440 -42 68 3 123 4 123 3 0 -1 -160 -161
-355 -357 -195 -195 -355 -358 -355 -362 0 -3 46 -6 103 -6 l104 0 392 390
c226 225 401 390 411 390 33 0 223 70 335 124 173 83 334 193 461 317 80 77
91 130 38 183 -52 51 -106 42 -188 -33 -102 -94 -301 -241 -266 -196 8 11 220
225 471 476 l456 456 5 -143 c5 -136 7 -147 37 -208 20 -42 50 -81 82 -109
l49 -43 -795 -796 c-437 -437 -795 -798 -795 -802 0 -3 47 -6 104 -6 l104 0
787 785 c432 432 792 785 800 785 26 0 116 38 156 66 51 35 106 119 121 185
11 49 23 63 225 268 l213 216 0 102 c0 57 -3 103 -6 103 -3 0 -100 -94 -215
-208 l-209 -208 0 338 0 339 50 48 c41 40 58 50 97 55 114 15 224 100 262 202
18 46 21 78 21 196 l0 140 -23 -15 c-22 -14 -25 -13 -65 30 -24 24 -68 56
-100 71 -53 25 -69 27 -218 30 l-161 4 283 286 284 286 0 103 c0 57 -3 103 -6
103 -3 0 -182 -175 -397 -390 l-391 -390 -211 0 c-229 0 -294 -10 -362 -54
-112 -71 -168 -202 -144 -335 15 -77 31 -110 82 -166 l39 -42 -331 -331 c-182
-182 -328 -323 -324 -314 21 53 37 170 37 267 0 114 -18 218 -53 308 -11 26
-19 50 -19 52 0 2 468 473 1040 1045 l1040 1042 0 59 0 59 -51 0 -52 0 -1033
-1033 c-569 -568 -1034 -1030 -1034 -1026 0 3 -30 39 -66 78 -65 70 -191 161
-271 195 l-41 18 103 104 c58 57 107 104 111 104 14 0 179 -114 222 -153 69
-64 92 -77 135 -77 57 0 97 43 97 104 0 43 -4 49 -61 103 -56 54 -205 167
-231 175 -18 6 187 208 212 208 29 0 77 26 90 49 5 11 10 31 10 45 0 20 101
127 488 514 268 269 509 513 537 541 l49 51 -108 0 -108 0 -481 -480 c-265
-264 -485 -480 -489 -480 -5 0 -41 16 -81 36 -89 45 -255 108 -331 125 -31 7
-59 16 -62 20 -2 4 145 158 328 342 183 184 355 358 383 386 l49 51 -108 0
-108 0 -373 -372 -374 -373 -228 0 c-208 -1 -239 -3 -354 -28 -69 -14 -134
-30 -144 -34 -10 -3 141 153 336 349 195 195 376 379 404 407 l49 51 -108 0
-108 0 -487 -486z m423 -475 c-10 -12 -79 -82 -153 -155 -109 -109 -142 -136
-175 -144 -200 -51 -392 -152 -558 -295 -92 -79 -111 -119 -84 -177 21 -44 53
-61 104 -56 50 4 89 48 -318 -358 l-325 -325 -5 308 c-3 169 -9 316 -13 325
-7 13 43 69 236 261 135 135 274 267 308 295 265 206 610 328 963 341 l39 1
-19 -21z m406 -36 c94 -24 285 -95 316 -117 13 -10 0 -27 -86 -112 l-101 -101
-67 24 c-132 49 -313 83 -438 83 l-64 0 128 129 127 130 45 -6 c25 -3 88 -16
140 -30z m-2244 -803 c34 0 101 -64 114 -108 6 -23 10 -272 10 -667 l0 -631
-23 -44 c-40 -81 -126 -112 -210 -76 -36 15 -87 69 -87 93 0 8 29 43 65 78
l65 63 0 113 0 114 -49 -50 c-26 -28 -60 -61 -75 -74 l-26 -24 0 336 0 336 75
75 75 75 0 113 0 113 -49 -50 c-26 -28 -61 -61 -76 -75 l-28 -25 5 95 c6 108
24 159 70 192 32 23 85 38 106 32 8 -2 25 -4 38 -4z m4459 -32 c44 -40 55 -90
31 -140 -27 -57 -58 -68 -188 -68 -132 0 -179 -11 -208 -47 -20 -25 -20 -37
-20 -585 0 -594 0 -599 -48 -641 -31 -28 -100 -32 -138 -8 -58 36 -64 65 -64
306 l0 217 65 63 65 63 0 113 0 113 -62 -63 -63 -63 -5 229 c-4 195 -8 233
-22 255 -23 34 -71 48 -171 48 -75 0 -78 1 -89 28 -7 15 -13 29 -15 31 -1 2
-15 -8 -29 -22 -21 -21 -30 -25 -46 -16 -25 14 -58 68 -58 97 0 36 28 81 63
102 31 19 53 20 500 20 l467 0 35 -32z m-2685 -91 c0 -8 -573 -577 -577 -573
-8 8 28 139 55 198 81 176 261 323 444 363 72 15 78 16 78 12z m284 -30 c310
-113 489 -431 421 -751 -52 -244 -259 -451 -505 -502 -82 -17 -213 -13 -290 9
l-42 12 41 43 c22 23 41 46 41 50 0 5 -12 19 -26 33 -14 13 -35 39 -46 57
l-21 34 -70 -71 c-38 -39 -74 -71 -79 -71 -5 0 -47 37 -92 83 -63 63 -92 101
-124 165 -71 142 -75 129 78 282 72 72 133 130 135 128 1 -1 -1 -29 -6 -62
-31 -193 103 -378 302 -416 245 -48 473 177 429 422 -22 121 -98 221 -208 275
-50 25 -68 28 -152 28 -83 0 -102 -4 -155 -28 -33 -15 -77 -44 -97 -65 -21
-20 -38 -32 -38 -28 0 4 18 45 41 91 49 100 131 201 219 268 64 49 65 49 121
43 31 -3 86 -16 123 -29z m1556 -565 l0 -269 -672 -671 c-543 -544 -678 -674
-707 -682 -155 -41 -389 -58 -554 -40 -65 7 -117 14 -117 16 0 2 55 59 122
127 l123 122 85 3 c331 12 646 144 878 367 47 46 52 56 52 93 0 54 -22 88 -66
102 -48 16 -80 3 -162 -68 -91 -78 -147 -115 -242 -163 -85 -43 -169 -74 -240
-90 -25 -5 -53 -12 -64 -15 -10 -4 306 318 703 715 l721 721 70 0 70 0 0 -268z
m-1728 108 c25 0 89 -59 104 -97 27 -63 19 -85 -52 -157 -57 -56 -72 -66 -101
-66 -74 0 -143 63 -158 141 -8 42 18 112 53 142 27 25 92 48 117 42 11 -3 28
-5 37 -5z m-304 -976 c139 -46 299 -52 451 -18 35 8 65 13 67 11 2 -2 -65 -72
-149 -156 l-152 -153 -77 5 c-85 7 -168 26 -270 62 -56 20 -164 69 -176 80 -2
2 42 49 98 105 76 77 105 100 118 95 9 -4 50 -18 90 -31z m-430 -339 c73 -52
266 -129 395 -158 l58 -13 -112 -112 c-127 -127 -106 -121 -246 -67 -72 29
-162 74 -289 145 l-40 23 98 99 c53 54 101 98 105 98 5 0 19 -7 31 -15z"/>
<path d="M3423 3860 c-84 -51 -43 -190 57 -190 102 0 143 138 57 190 -41 25
-74 25 -114 0z"/>
<path d="M4309 812 c-440 -440 -799 -802 -799 -805 0 -4 47 -7 104 -7 l105 0
700 701 701 700 0 105 c0 57 -3 104 -6 104 -4 0 -366 -359 -805 -798z"/>
<path d="M993 1425 c-34 -14 -63 -59 -63 -97 0 -40 36 -86 75 -97 77 -21 135
23 135 102 0 42 -24 75 -66 93 -40 17 -41 17 -81 -1z"/>
<path d="M4759 362 c-192 -192 -349 -352 -349 -355 0 -4 46 -7 103 -7 l104 0
251 251 252 252 0 103 c0 57 -3 104 -6 104 -4 0 -163 -157 -355 -348z"/>
</g>
</svg>
