<?xml version="1.0" standalone="no"?>
<!DOCTYPE svg PUBLIC "-//W3C//DTD SVG 20010904//EN"
 "http://www.w3.org/TR/2001/REC-SVG-20010904/DTD/svg10.dtd">
<svg version="1.0" xmlns="http://www.w3.org/2000/svg"
  viewBox="0 50 500 400"
 preserveAspectRatio="xMidYMid meet">
<metadata>
Created by potrace 1.15, written by Peter Selinger 2001-2017
</metadata>
<g transform="translate(0.000000,512.000000) scale(0.100000,-0.100000)"
fill="#f76497" stroke="none">
<path d="M303 5052 c-86 -74 -272 -269 -286 -299 -33 -73 41 -14 241 191 78
80 142 151 142 156 0 23 -34 6 -97 -48z"/>
<path d="M503 5051 c-104 -90 -480 -475 -488 -500 -12 -37 2 -35 52 7 72 60
533 529 533 541 0 24 -33 8 -97 -48z"/>
<path d="M703 5051 c-112 -97 -680 -674 -687 -699 -23 -71 24 -29 442 391 188
189 342 349 342 356 0 24 -32 8 -97 -48z"/>
<path d="M903 5051 c-116 -100 -880 -875 -888 -899 -22 -72 19 -35 543 491
243 244 442 449 442 455 0 25 -32 10 -97 -47z"/>
<path d="M1103 5051 c-118 -102 -1080 -1075 -1088 -1099 -11 -38 2 -37 52 6
79 66 1133 1127 1133 1140 0 25 -32 10 -97 -47z"/>
<path d="M1303 5051 c-119 -104 -1280 -1275 -1288 -1299 -11 -38 2 -37 52 6
80 67 1333 1327 1333 1340 0 25 -32 10 -97 -47z"/>
<path d="M1503 5051 c-121 -105 -1480 -1475 -1488 -1499 -11 -38 2 -37 52 6
81 68 1533 1527 1533 1540 0 25 -32 10 -97 -47z"/>
<path d="M1728 5074 c-61 -50 -1588 -1575 -1659 -1657 -56 -64 -72 -97 -48
-97 6 0 130 118 275 262 145 144 264 258 264 254 0 -4 -7 -39 -16 -79 l-16
-72 -227 -230 c-125 -126 -242 -247 -259 -268 -32 -38 -41 -67 -21 -67 6 0
118 106 249 235 l237 236 -19 -83 -19 -83 -198 -200 c-109 -110 -212 -217
-229 -238 -32 -38 -41 -67 -21 -67 6 0 104 93 219 206 115 113 207 198 205
187 -35 -154 -22 -133 -204 -318 -92 -93 -182 -187 -199 -208 -32 -38 -41 -67
-22 -67 6 0 92 80 192 178 100 97 179 170 175 161 -3 -10 -11 -46 -18 -80 -12
-64 -12 -64 -154 -209 -77 -80 -156 -162 -173 -183 -32 -37 -41 -67 -22 -67 6
0 78 66 161 148 84 81 149 138 146 127 -3 -11 -11 -47 -18 -80 -11 -57 -17
-65 -124 -175 -61 -63 -126 -132 -143 -153 -31 -37 -41 -67 -22 -67 5 0 64 53
131 118 91 87 121 110 116 92 -3 -14 -11 -50 -18 -80 -10 -49 -20 -64 -93
-140 -107 -111 -146 -157 -146 -175 0 -27 16 -16 109 71 50 47 91 83 91 79 0
-3 -7 -38 -16 -78 -14 -63 -22 -79 -68 -127 -80 -85 -116 -129 -116 -145 0
-25 12 -18 83 46 l67 61 0 -65 c0 -48 -4 -68 -17 -78 -34 -29 -133 -150 -133
-164 0 -25 14 -17 91 54 l76 70 21 -43 20 -43 -45 -44 c-113 -109 -186 -209
-154 -209 5 0 59 47 119 105 l110 105 26 -31 c14 -17 26 -34 26 -37 0 -4 -39
-46 -86 -92 -158 -156 -231 -250 -194 -250 6 0 80 68 164 151 l154 150 28 -36
27 -36 -160 -162 c-87 -89 -174 -179 -191 -200 -32 -38 -41 -67 -21 -67 5 0
99 88 207 195 l198 194 28 -35 28 -35 -230 -233 c-208 -211 -255 -266 -238
-283 9 -9 93 68 300 276 l199 200 29 -37 29 -36 -249 -250 c-137 -138 -263
-268 -280 -289 -32 -38 -41 -67 -21 -67 6 0 139 127 296 283 l284 282 29 -35
29 -35 -293 -295 c-161 -162 -307 -312 -324 -333 -32 -38 -41 -67 -21 -67 7 0
160 147 341 327 l329 327 24 -29 c13 -17 24 -35 25 -40 0 -6 -138 -147 -306
-315 -388 -387 -461 -470 -413 -470 7 0 179 167 384 371 l372 370 27 -31 c14
-17 26 -35 26 -38 0 -4 -158 -165 -351 -357 -193 -193 -377 -380 -410 -418
-56 -65 -72 -97 -47 -97 6 0 199 187 428 415 l417 416 28 -36 27 -37 -426
-427 c-234 -235 -426 -433 -426 -439 0 -21 29 -13 67 20 21 17 214 206 428
420 l390 388 29 -36 28 -36 -371 -372 c-204 -205 -371 -378 -371 -385 0 -48
83 25 469 412 l305 306 27 -37 28 -37 -315 -316 c-173 -174 -314 -322 -314
-328 0 -20 29 -11 67 21 21 17 163 156 316 307 l278 276 29 -35 29 -35 -260
-261 c-142 -144 -259 -267 -259 -273 0 -20 29 -11 67 21 21 17 138 130 260
251 l221 220 26 -29 c14 -16 26 -33 26 -38 0 -5 -90 -100 -200 -212 -110 -111
-200 -208 -200 -213 0 -41 91 32 300 243 129 130 135 135 153 118 48 -43 48
-44 -107 -203 -80 -82 -146 -153 -146 -159 0 -19 30 -10 67 22 21 17 88 81
149 141 l112 109 33 -23 c19 -13 36 -25 38 -26 2 -1 -42 -50 -98 -109 -55 -58
-101 -110 -101 -115 0 -32 100 41 209 154 38 40 47 44 68 36 13 -5 38 -9 55
-9 29 0 28 -1 -51 -86 -83 -89 -92 -104 -66 -104 15 0 126 92 179 149 27 28
35 31 94 31 l64 0 -76 -82 c-78 -83 -87 -98 -61 -98 15 0 126 92 179 149 27
28 35 31 94 31 l64 0 -76 -82 c-78 -83 -87 -98 -61 -98 15 0 126 92 179 149
27 28 35 31 94 31 l64 0 -76 -82 c-78 -83 -87 -98 -61 -98 15 0 126 92 179
149 27 28 35 31 94 31 l64 0 -76 -82 c-78 -83 -87 -98 -61 -98 15 0 126 92
179 149 27 28 35 31 94 31 l64 0 -76 -82 c-78 -83 -87 -98 -61 -98 15 0 126
92 179 149 27 28 35 31 94 31 l64 0 -76 -82 c-78 -83 -87 -98 -61 -98 15 0
126 92 179 149 27 28 35 31 94 31 l64 0 -76 -82 c-78 -83 -87 -98 -61 -98 15
0 126 92 179 149 27 28 35 31 94 31 l64 0 -76 -82 c-78 -83 -87 -98 -61 -98
15 0 126 92 179 149 27 28 35 31 94 31 l64 0 -76 -82 c-78 -83 -87 -98 -61
-98 16 0 62 37 155 126 49 46 75 63 104 69 51 9 125 46 171 86 19 17 141 165
269 328 230 290 243 304 626 686 216 215 418 420 451 458 56 64 72 97 48 97
-6 0 -149 -136 -317 -303 -286 -283 -300 -295 -223 -197 46 58 140 179 210
269 69 91 160 201 201 245 107 114 140 155 140 171 0 25 -13 17 -88 -51 l-72
-66 0 65 c0 53 4 67 21 83 44 38 139 155 139 169 0 26 -14 17 -93 -55 l-76
-71 -10 38 c-16 57 -14 66 25 104 62 59 154 169 154 184 0 27 -17 16 -113 -75
l-95 -90 -11 52 -12 52 84 85 c46 48 98 103 115 124 31 37 41 67 23 67 -5 0
-60 -48 -121 -106 -61 -59 -112 -105 -114 -103 -2 2 -8 25 -13 51 l-10 46 74
74 c146 143 219 238 183 238 -5 0 -68 -57 -139 -126 l-130 -125 -10 38 c-6 21
-11 45 -11 53 0 9 41 56 91 105 163 161 236 255 199 255 -6 0 -77 -65 -159
-145 l-149 -146 -11 53 -12 52 139 141 c76 77 153 157 170 178 32 37 41 67 22
67 -6 0 -85 -73 -175 -162 -91 -88 -167 -159 -169 -157 -2 2 -8 25 -13 51
l-10 46 129 129 c204 202 278 293 238 293 -6 0 -94 -81 -195 -181 -100 -99
-185 -177 -188 -172 -3 4 -8 28 -12 52 l-7 44 174 176 c96 97 189 193 206 214
32 38 41 67 21 67 -5 0 -102 -90 -214 -201 l-203 -200 -11 52 -12 53 194 196
c106 107 208 212 225 233 32 38 41 67 21 67 -6 0 -109 -97 -230 -217 -120
-119 -221 -214 -223 -212 -1 2 -8 24 -14 49 l-11 45 213 215 c117 118 227 232
244 253 32 38 41 67 21 67 -6 0 -118 -106 -249 -236 -131 -129 -240 -232 -243
-227 -3 4 -8 28 -12 52 l-7 44 229 231 c126 127 244 248 261 269 32 38 41 67
21 67 -6 0 -127 -115 -269 -256 l-258 -256 -11 53 -12 53 249 251 c137 137
263 267 280 288 32 38 41 67 21 67 -6 0 -136 -123 -288 -274 l-276 -275 -23
42 -23 41 279 281 c153 154 293 297 310 318 32 38 41 67 21 67 -6 0 -154 -141
-328 -314 l-316 -314 -33 32 -32 31 301 300 c383 382 456 465 408 465 -7 0
-179 -167 -384 -371 l-373 -371 -42 22 -43 22 395 396 c217 219 409 414 426
435 33 38 41 67 20 67 -6 0 -208 -197 -449 -437 l-438 -436 -41 18 c-22 10
-40 21 -40 24 0 3 194 199 430 436 237 238 430 437 430 443 0 21 -29 13 -67
-20 -21 -17 -220 -212 -443 -434 l-405 -402 -44 20 -43 20 401 402 c220 222
401 408 401 414 0 21 -29 13 -67 -20 -21 -17 -205 -198 -410 -402 l-372 -370
-40 19 c-23 10 -41 20 -41 23 0 3 164 171 365 373 201 201 365 371 365 378 0
48 -83 -25 -474 -417 l-309 -310 -44 21 -43 21 335 337 c184 185 335 341 335
348 0 20 -29 11 -67 -21 -21 -17 -175 -168 -343 -335 l-306 -304 -39 17 c-22
9 -42 18 -44 20 -3 2 131 141 297 308 166 167 302 309 302 315 0 46 -86 -28
-409 -352 l-244 -245 -43 21 -44 21 270 272 c149 149 270 277 270 283 0 20
-29 11 -67 -21 -21 -17 -146 -139 -279 -271 l-241 -239 -43 22 -42 21 236 239
c130 131 236 243 236 249 0 20 -29 11 -67 -21 -21 -17 -131 -124 -245 -236
l-206 -205 -47 17 -46 18 205 208 c113 115 206 213 206 219 0 20 -29 11 -67
-21 -21 -17 -117 -110 -214 -206 l-176 -174 -42 22 -43 21 171 174 c94 96 171
179 171 185 0 19 -29 10 -67 -22 -21 -17 -102 -95 -180 -172 l-142 -140 -40
19 c-23 10 -41 20 -41 23 0 2 61 67 135 143 74 77 135 144 135 149 0 19 -30
10 -67 -22 -21 -17 -88 -81 -149 -141 l-111 -109 -42 22 -42 21 105 110 c58
61 106 115 106 120 0 18 -30 8 -67 -23 -21 -17 -72 -65 -114 -106 l-77 -74
-38 12 c-22 7 -42 15 -47 17 -4 2 26 41 68 85 77 83 86 98 60 98 -16 0 -60
-35 -145 -116 -49 -46 -61 -52 -112 -58 -31 -3 -65 -9 -75 -13 -10 -4 19 33
65 82 83 89 93 105 67 105 -19 0 -67 -41 -190 -161 -92 -91 -109 -102 -220
-154 l-119 -56 172 175 c95 96 172 180 172 186 0 19 -29 10 -67 -22 -21 -17
-126 -118 -233 -224 l-195 -193 -120 -56 -120 -56 268 269 c147 149 267 275
267 281 0 20 -29 11 -67 -21 -21 -17 -168 -161 -328 -319 l-290 -288 -120 -56
-120 -56 363 364 c199 200 362 369 362 376 0 20 -29 12 -67 -21 -21 -17 -211
-204 -423 -414 l-385 -383 -120 -56 -120 -56 458 459 c251 252 457 464 457
470 0 22 -28 12 -72 -24z m904 -805 l31 -30 -7 -142 c-4 -78 -10 -170 -15
-204 -6 -55 -5 -62 11 -66 11 -3 18 -14 18 -29 0 -23 5 -26 98 -41 255 -42
487 -156 664 -326 64 -61 69 -64 95 -52 20 9 28 9 34 0 5 -8 16 -1 37 22 52
59 252 234 278 242 79 27 154 -68 114 -143 -9 -18 -222 -171 -298 -216 -22
-12 -32 -25 -29 -36 3 -9 -4 -24 -14 -34 -18 -16 -18 -17 1 -44 38 -53 109
-207 138 -301 47 -146 66 -298 58 -456 -6 -126 -6 -132 14 -138 11 -3 20 -15
20 -26 0 -15 7 -19 36 -19 66 0 344 -50 369 -66 47 -31 49 -119 4 -157 -41
-34 -63 -31 -251 31 -142 46 -185 57 -193 47 -6 -7 -21 -12 -33 -11 -20 1 -27
-9 -46 -59 -95 -249 -274 -474 -497 -622 -62 -41 -67 -47 -57 -66 9 -17 8 -23
-5 -31 -14 -9 -14 -13 2 -35 10 -15 53 -89 96 -166 64 -113 79 -148 80 -183 0
-57 -36 -92 -97 -92 -70 0 -81 19 -179 295 -27 76 -43 109 -53 107 -8 -1 -21
7 -29 19 l-15 21 -64 -21 c-240 -79 -517 -79 -762 -1 l-98 32 -15 -22 c-8 -12
-20 -19 -27 -17 -8 3 -35 -53 -77 -156 -71 -179 -92 -216 -132 -235 -58 -28
-131 23 -131 93 0 33 98 215 170 317 29 41 31 49 18 56 -14 8 -14 13 -4 32 14
25 17 21 -75 85 -194 136 -368 367 -455 604 -25 66 -31 76 -51 73 -12 -1 -27
5 -34 14 -9 13 -16 14 -31 6 -10 -5 -95 -31 -187 -57 -149 -42 -171 -46 -198
-35 -41 17 -59 47 -59 95 1 40 10 58 41 83 13 9 342 62 390 62 5 0 9 7 9 15 0
8 10 17 23 20 22 6 22 8 22 173 0 179 13 265 62 412 28 83 88 209 135 283 29
45 30 49 13 67 -10 11 -14 26 -11 38 5 13 0 22 -17 29 -43 20 -266 184 -293
216 -21 25 -25 38 -20 66 7 50 55 91 103 91 34 0 48 -11 179 -141 89 -89 147
-139 154 -134 7 4 22 2 35 -5 22 -12 29 -8 91 49 174 159 403 268 646 308 93
15 98 18 98 41 0 16 7 26 21 29 13 4 18 11 14 21 -12 32 -34 364 -25 387 27
70 109 88 162 34z"/>
<path d="M2420 3523 c-106 -14 -271 -71 -365 -126 -70 -41 -166 -110 -193
-139 l-22 -25 242 -168 c134 -93 255 -171 270 -173 18 -3 29 2 36 15 9 17 67
613 60 617 -2 1 -14 0 -28 -1z"/>
<path d="M2700 3504 c0 -11 9 -147 20 -304 19 -259 23 -287 41 -302 11 -10 27
-14 37 -11 14 6 487 316 502 330 7 7 -86 89 -150 133 -115 78 -284 147 -402
165 -43 6 -48 5 -48 -11z"/>
<path d="M1652 2988 c-76 -136 -120 -297 -129 -480 -5 -100 -3 -128 7 -128 21
0 564 171 578 182 38 32 22 50 -339 397 l-87 82 -30 -53z"/>
<path d="M3230 2816 c-215 -203 -241 -237 -208 -263 17 -14 568 -196 574 -190
2 2 7 33 10 68 8 78 -10 228 -37 329 -22 80 -102 260 -116 260 -4 -1 -105 -92
-223 -204z"/>
<path d="M2473 2655 c-150 -75 -149 -288 2 -356 102 -47 220 -4 266 96 27 58
24 113 -9 176 -22 43 -38 59 -81 81 -66 35 -112 35 -178 3z"/>
<path d="M1845 2170 c-143 -21 -261 -39 -262 -39 -6 -2 42 -112 74 -171 46
-84 79 -127 172 -223 84 -87 159 -144 171 -131 4 5 56 133 114 284 123 314
124 321 39 319 -27 -1 -165 -18 -308 -39z"/>
<path d="M2933 2200 c-16 -7 -23 -18 -23 -36 0 -15 46 -152 102 -305 l102
-277 58 40 c80 56 203 187 265 281 48 74 111 203 102 211 -2 1 -128 22 -279
45 -151 23 -282 44 -290 46 -8 2 -25 0 -37 -5z"/>
<path d="M2517 1988 c-39 -53 -300 -498 -295 -504 12 -12 201 -52 273 -58 89
-8 220 4 323 30 37 9 69 18 70 19 5 4 -277 504 -296 528 -23 26 -48 21 -75
-15z"/>
<path d="M4322 878 c-754 -754 -860 -863 -849 -874 3 -3 16 -3 29 1 24 8 1454
1427 1559 1548 57 65 72 97 47 97 -7 0 -360 -348 -786 -772z"/>
<path d="M4422 778 c-658 -658 -760 -763 -749 -774 3 -3 16 -3 29 1 24 8 1255
1228 1359 1348 57 65 72 97 47 97 -6 0 -315 -303 -686 -672z"/>
<path d="M4522 678 c-664 -663 -694 -695 -620 -673 24 8 1056 1030 1159 1148
57 65 72 97 47 97 -6 0 -270 -258 -586 -572z"/>
<path d="M4623 578 c-558 -557 -594 -595 -521 -573 24 8 858 832 959 948 57
65 72 97 47 97 -6 0 -225 -213 -485 -472z"/>
<path d="M4723 478 c-452 -450 -492 -495 -421 -472 25 7 661 634 759 747 56
65 72 97 48 97 -7 0 -180 -168 -386 -372z"/>
<path d="M4823 378 c-345 -342 -390 -394 -322 -373 25 8 468 441 560 548 56
64 72 97 48 97 -6 0 -135 -123 -286 -272z"/>
<path d="M4924 278 c-185 -182 -261 -265 -250 -275 14 -14 62 23 192 149 203
197 286 298 244 298 -6 0 -90 -78 -186 -172z"/>
</g>
</svg>
