<?xml version="1.0" standalone="no"?>
<!DOCTYPE svg PUBLIC "-//W3C//DTD SVG 20010904//EN"
 "http://www.w3.org/TR/2001/REC-SVG-20010904/DTD/svg10.dtd">
<svg version="1.0" xmlns="http://www.w3.org/2000/svg"
   viewBox="0 0 200 200"
 preserveAspectRatio="xMidYMid meet">
<metadata>
Created by potrace 1.15, written by Peter Selinger 2001-2017
</metadata>
<g transform="translate(0.000000,240.000000) scale(0.100000,-0.100000)"
fill="#f76497" stroke="none">
<path d="M531 2105 c-278 -162 -509 -299 -514 -304 -5 -5 -8 -261 -8 -602 2
-547 3 -595 19 -611 17 -16 981 -568 1016 -581 14 -5 149 69 515 282 273 160
504 296 514 303 17 13 18 45 17 608 0 412 -4 598 -11 607 -13 15 -1022 593
-1035 593 -5 0 -236 -133 -513 -295z m737 -424 l202 -115 0 -214 0 -213 -57
32 c-32 18 -70 40 -85 49 -28 15 -28 15 -28 130 l0 116 -126 72 -126 72 -124
-73 -124 -72 0 -116 0 -116 -82 -50 -83 -51 -3 211 c-1 131 1 214 8 221 23 23
396 236 410 234 9 -2 107 -54 218 -117z m-698 -249 l0 -99 -50 -27 -51 -28 3
-81 3 -81 66 -38 66 -38 309 181 c170 100 315 183 322 186 10 4 12 -16 10 -93
l-3 -98 -313 -183 c-172 -101 -319 -183 -325 -183 -7 1 -77 38 -157 83 l-145
83 -3 179 -2 180 132 77 c73 43 134 78 136 78 1 0 2 -44 2 -98z m1100 24 l125
-72 3 -179 2 -180 -147 -85 c-81 -47 -152 -85 -157 -85 -15 0 -365 198 -366
207 0 3 36 27 80 53 l81 46 101 -58 101 -57 66 36 66 37 3 81 3 80 -32 18
c-78 43 -79 45 -79 143 0 65 3 89 13 88 6 0 68 -33 137 -73z m-260 -646 c0 -4
-81 -55 -179 -112 l-179 -105 -176 101 c-97 55 -176 103 -176 106 0 6 144 100
154 100 4 0 50 -25 102 -55 l96 -55 100 59 100 58 79 -44 c43 -25 79 -49 79
-53z"/>
</g>
</svg>
